<?xml version="1.0" standalone="no"?>
<!DOCTYPE svg PUBLIC "-//W3C//DTD SVG 20010904//EN"
 "http://www.w3.org/TR/2001/REC-SVG-20010904/DTD/svg10.dtd">
<svg version="1.0" xmlns="http://www.w3.org/2000/svg"
 width="900.000000pt" height="900.000000pt" viewBox="0 0 900.000000 900.000000"
 preserveAspectRatio="xMidYMid meet">
<metadata>
Created by potrace 1.11, written by Peter Selinger 2001-2013
</metadata>
<g transform="translate(0.000000,900.000000) scale(0.100000,-0.100000)"
fill="#000000" stroke="none">
<path d="M3215 8019 c-99 -9 -210 -33 -259 -55 -30 -14 -28 -15 39 -9 307 24
607 14 880 -31 17 -2 55 -9 85 -13 74 -12 284 -62 290 -70 3 -3 10 -7 16 -8
67 -12 133 -31 204 -57 153 -56 266 -99 275 -106 6 -5 48 -28 95 -53 109 -57
162 -87 178 -99 7 -6 25 -18 41 -27 72 -40 186 -123 286 -206 69 -58 145 -131
110 -106 -16 11 -43 30 -60 42 -21 15 -18 10 10 -16 22 -21 65 -62 96 -91 31
-30 60 -54 65 -54 4 0 3 5 -4 12 -21 21 -13 32 8 13 13 -12 16 -21 10 -25 -6
-4 22 -40 65 -86 98 -102 216 -247 302 -370 74 -106 88 -129 207 -344 43 -78
84 -144 91 -147 25 -9 214 100 215 124 1 39 -186 351 -309 518 -253 341 -608
657 -956 852 -442 247 -785 353 -1330 408 -151 16 -501 18 -650 4z"/>
<path d="M2880 7940 c0 -13 11 -13 30 0 12 8 11 10 -7 10 -13 0 -23 -4 -23
-10z"/>
<path d="M2985 7824 c-367 -36 -731 -137 -1016 -279 -323 -163 -633 -399 -852
-650 -38 -44 -8 -19 79 67 343 338 660 530 1100 663 418 127 794 162 1190 110
331 -44 621 -134 949 -295 553 -272 1038 -723 1313 -1220 16 -30 40 -73 53
-95 12 -22 36 -65 52 -95 16 -30 33 -59 37 -64 11 -11 130 35 130 51 0 45
-219 408 -343 569 -120 155 -414 464 -442 464 -4 0 4 -11 19 -25 14 -13 26
-28 26 -32 0 -5 9 -15 20 -23 19 -14 19 -15 -7 -42 -23 -24 -24 -29 -12 -45
13 -17 12 -17 -6 -2 -11 9 -54 45 -95 80 -536 460 -1138 733 -1770 802 -27 3
-24 4 15 5 28 1 100 -5 160 -13 207 -29 209 -29 201 -16 -8 13 79 7 144 -10
37 -9 66 -12 59 -5 -9 9 -233 57 -361 77 -99 15 -193 21 -368 24 -129 1 -253
1 -275 -1z m352 -50 c-3 -3 -12 -4 -19 -1 -8 3 -5 6 6 6 11 1 17 -2 13 -5z"/>
<path d="M5235 7335 c32 -28 65 -49 65 -41 0 3 -21 19 -47 36 -41 27 -43 27
-18 5z"/>
<path d="M5310 7283 c0 -4 12 -16 25 -26 14 -10 25 -14 25 -10 0 4 -12 16 -25
26 -14 10 -25 14 -25 10z"/>
<path d="M5190 7086 c0 -2 8 -10 18 -17 15 -13 16 -12 3 4 -13 16 -21 21 -21
13z"/>
<path d="M1039 6803 c-13 -16 -12 -17 4 -4 16 13 21 21 13 21 -2 0 -10 -8 -17
-17z"/>
<path d="M5780 6761 c0 -6 4 -13 10 -16 6 -3 7 1 4 9 -7 18 -14 21 -14 7z"/>
<path d="M5860 6660 c6 -11 16 -20 22 -20 6 0 3 9 -7 20 -10 11 -20 20 -22 20
-2 0 1 -9 7 -20z"/>
<path d="M5950 6526 c38 -57 103 -164 144 -237 89 -159 101 -177 81 -125 -9
22 -20 46 -27 53 -6 7 -8 16 -5 19 3 3 -4 22 -15 42 -12 21 -27 48 -34 62 -7
14 -21 34 -31 45 -10 11 -24 31 -31 45 -32 62 -100 160 -111 160 -5 0 -11 9
-14 20 -3 11 -10 20 -16 20 -6 0 21 -47 59 -104z"/>
<path d="M6926 6193 c7 -30 37 -60 42 -44 5 14 -26 71 -38 71 -6 0 -8 -12 -4
-27z"/>
<path d="M6839 6142 c-29 -24 -11 -36 20 -13 14 11 19 21 13 25 -5 3 -20 -2
-33 -12z"/>
<path d="M6732 6101 c-29 -15 -31 -19 -19 -35 12 -16 15 -16 28 -3 8 8 25 18
37 21 26 9 30 36 5 35 -10 -1 -33 -9 -51 -18z"/>
<path d="M6571 6098 c-1 -4 4 -19 10 -34 7 -20 7 -34 -1 -49 -15 -29 0 -85 39
-147 32 -50 71 -80 71 -54 0 8 5 16 12 18 8 3 5 14 -10 35 -12 18 -44 78 -71
135 -27 57 -50 100 -50 96z m77 -188 c25 -44 26 -50 12 -50 -12 0 -50 59 -50
78 0 23 15 12 38 -28z"/>
<path d="M6675 6063 c7 -29 25 -56 32 -49 6 5 -24 76 -33 76 -3 0 -3 -12 1
-27z"/>
<path d="M6487 6064 c-3 -4 0 -22 8 -41 19 -44 19 -53 0 -53 -22 0 -19 -75 4
-125 17 -39 72 -95 92 -95 5 0 12 7 15 15 4 8 12 15 20 15 19 0 18 10 -9 50
-13 19 -43 81 -66 138 -41 97 -50 110 -64 96z m76 -199 c19 -41 21 -55 7 -55
-11 0 -35 36 -45 68 -11 37 19 27 38 -13z"/>
<path d="M6634 6034 c3 -9 6 -23 6 -32 0 -10 3 -13 10 -6 11 11 2 54 -12 54
-6 0 -7 -7 -4 -16z"/>
<path d="M6661 5953 c5 -15 20 -41 34 -58 l24 -30 -25 52 c-27 57 -49 81 -33
36z"/>
<path d="M3890 5956 c0 -2 7 -7 16 -10 8 -3 12 -2 9 4 -6 10 -25 14 -25 6z"/>
<path d="M6313 5915 c9 -22 -10 -28 -36 -10 -35 22 -41 6 -10 -27 28 -29 25
-43 -10 -43 -48 0 -9 -116 42 -123 14 -2 21 -10 19 -20 -4 -24 34 -27 61 -5
46 38 35 145 -20 208 -32 36 -56 47 -46 20z"/>
<path d="M3655 5910 c3 -5 10 -10 16 -10 5 0 9 5 9 10 0 6 -7 10 -16 10 -8 0
-12 -4 -9 -10z"/>
<path d="M3705 5911 c-3 -5 -1 -12 5 -16 5 -3 10 1 10 9 0 18 -6 21 -15 7z"/>
<path d="M4270 5910 c0 -5 5 -10 10 -10 6 0 10 5 10 10 0 6 -4 10 -10 10 -5 0
-10 -4 -10 -10z"/>
<path d="M4401 5904 c0 -11 3 -14 6 -6 3 7 2 16 -1 19 -3 4 -6 -2 -5 -13z"/>
<path d="M3740 5900 c-8 -5 -11 -12 -7 -16 4 -4 13 -2 19 4 15 15 7 24 -12 12z"/>
<path d="M3807 5903 c-3 -5 6 -9 19 -9 13 -1 36 -5 50 -8 24 -6 25 -5 11 9
-16 15 -72 21 -80 8z"/>
<path d="M4120 5900 c0 -6 5 -19 12 -29 9 -15 7 -23 -8 -44 -22 -31 -39 -36
-24 -7 6 11 8 26 3 33 -5 8 -9 4 -14 -13 -7 -24 -7 -24 -8 -2 -1 18 -7 22 -34
22 -17 0 -48 4 -66 10 -40 11 -49 7 -31 -15 10 -12 10 -19 1 -28 -8 -8 -14 -9
-19 -1 -11 17 -56 11 -73 -9 -14 -18 -15 -18 -11 17 4 31 1 36 -17 36 -23 0
-29 -15 -8 -23 6 -3 -5 -4 -26 -2 -20 1 -45 9 -55 17 -21 19 -60 29 -67 17 -3
-4 -12 -6 -20 -2 -8 3 -15 0 -15 -6 0 -6 9 -11 20 -11 18 0 22 -19 10 -50 -2
-3 -2 -9 -1 -14 1 -5 -6 -6 -14 -2 -9 3 -22 3 -28 -1 -23 -15 -46 -16 -119 -7
-43 5 -47 8 -37 25 7 14 6 19 -4 19 -7 0 -18 12 -24 28 -10 26 -10 25 -6 -10
7 -46 -19 -63 -81 -54 -35 6 -43 3 -59 -17 -12 -17 -25 -23 -42 -20 -14 3 -22
10 -19 18 7 18 -15 30 -51 27 -20 -2 -26 0 -17 6 10 7 9 12 -4 23 -16 13 -17
11 -11 -28 6 -38 5 -43 -11 -43 -11 0 -27 -9 -37 -20 -17 -19 -18 -19 -50 5
-36 28 -51 31 -58 13 -4 -10 -8 -10 -16 2 -8 12 -13 12 -35 0 -26 -13 -35 -30
-16 -30 6 0 10 5 10 10 0 15 30 12 47 -5 14 -14 13 -15 -13 -9 l-29 6 28 -25
c31 -27 28 -52 -4 -44 -11 3 -19 1 -19 -4 0 -5 -5 -9 -11 -9 -7 0 -9 10 -5 25
4 14 2 25 -4 25 -5 0 -10 -9 -10 -21 0 -18 -4 -20 -27 -15 l-28 6 24 -20 c31
-26 21 -37 -14 -14 -16 10 -24 23 -20 32 5 12 3 13 -10 2 -14 -11 -17 -10 -22
9 -3 12 -11 20 -17 18 -6 -2 -19 0 -28 5 -13 6 -18 5 -18 -7 0 -8 5 -15 12
-15 6 0 26 -11 44 -25 18 -14 37 -25 43 -25 6 0 11 -9 11 -20 0 -11 -5 -20
-11 -20 -5 0 -8 4 -4 9 3 5 1 12 -5 16 -5 3 -10 1 -10 -4 0 -6 -9 -11 -20 -11
-11 0 -20 -7 -20 -15 0 -9 9 -15 25 -15 14 0 25 -4 25 -9 0 -4 -16 -7 -36 -5
-33 2 -36 1 -31 -22 5 -29 -8 -40 -28 -24 -11 9 -21 7 -44 -11 -17 -13 -31
-29 -31 -36 0 -13 -24 -18 -65 -13 -19 2 -19 1 2 -22 19 -20 19 -25 6 -37 -8
-7 -12 -16 -8 -19 3 -4 10 0 15 8 9 13 10 13 10 0 1 -8 3 -32 5 -53 4 -34 3
-36 -11 -22 -9 8 -21 15 -27 15 -8 0 -7 -4 1 -12 19 -19 14 -38 -11 -38 -13 0
-27 -3 -31 -7 -4 -5 -13 -8 -19 -8 -5 0 -12 -6 -15 -13 -3 -11 0 -12 16 -3 11
6 29 11 39 10 14 0 12 -3 -7 -12 -35 -16 -36 -17 -20 -28 12 -8 10 -10 -7 -6
-16 4 -23 0 -23 -10 0 -8 -4 -12 -9 -9 -5 3 -14 -1 -20 -8 -8 -10 -9 -16 -1
-21 19 -12 10 -33 -20 -45 -32 -13 -40 -30 -15 -30 8 0 15 -4 15 -10 0 -5 -9
-10 -20 -10 -11 0 -20 -6 -20 -14 0 -8 -9 -21 -21 -30 -16 -10 -19 -20 -14
-38 13 -45 36 -87 52 -96 9 -6 11 -12 5 -16 -5 -3 -15 1 -22 9 -14 17 -35 21
-25 5 10 -16 -23 -43 -45 -37 -24 6 -36 -8 -14 -17 8 -3 13 -10 9 -15 -3 -6 3
-9 14 -8 11 0 22 9 24 19 4 12 15 18 33 18 l27 0 -26 -24 c-14 -13 -22 -27
-17 -32 14 -16 22 -54 10 -54 -6 0 -13 7 -15 15 -16 51 -16 50 -26 35 -8 -12
-12 -12 -16 -2 -4 10 -8 10 -19 1 -20 -17 -17 -39 6 -39 11 0 20 -4 20 -10 0
-10 -13 -14 -40 -11 -8 1 0 -8 18 -20 36 -24 40 -31 15 -27 -12 2 -18 -4 -18
-18 -1 -12 -8 -29 -18 -38 -23 -24 -21 -27 9 -16 14 6 23 6 19 1 -3 -5 3 -12
12 -14 16 -4 15 -6 -3 -12 -14 -4 -20 -13 -17 -24 2 -10 -3 -26 -13 -35 -15
-15 -15 -19 -3 -27 9 -7 4 -8 -16 -3 -21 4 -26 3 -16 -4 15 -11 5 -36 -10 -26
-7 4 -8 -8 -4 -33 7 -35 6 -36 -7 -19 -12 15 -19 17 -34 8 -17 -10 -17 -11 -1
-12 10 0 17 -8 17 -21 0 -11 4 -18 9 -15 14 9 31 -50 19 -62 -18 -18 28 -52
70 -53 32 0 34 -1 14 -9 -13 -6 -32 -6 -48 0 -37 15 -42 12 -16 -10 17 -14 22
-25 17 -40 -8 -26 -25 -26 -25 0 0 11 -4 20 -10 20 -13 0 -13 -46 0 -70 5 -10
20 -20 34 -24 13 -3 27 -14 30 -23 4 -10 4 -14 0 -10 -4 4 -13 2 -21 -5 -19
-16 -28 -2 -12 19 13 16 12 17 -3 4 -27 -20 -23 -56 7 -69 33 -15 42 -15 27 0
-23 23 -12 28 13 6 13 -11 22 -25 19 -30 -3 -4 1 -8 10 -8 8 0 16 6 18 12 8
24 59 -44 55 -73 -2 -19 1 -25 10 -22 7 3 13 16 13 29 0 33 13 30 27 -6 10
-26 15 -30 37 -24 19 4 26 2 26 -8 0 -8 18 -33 40 -56 22 -22 40 -48 40 -56 0
-19 16 -21 26 -4 4 7 3 8 -4 4 -8 -5 -12 2 -12 18 0 16 6 26 15 26 8 0 15 -9
15 -19 0 -14 5 -18 20 -14 16 4 20 0 21 -23 0 -16 3 -23 6 -16 2 6 11 12 19
12 16 0 19 -21 5 -36 -11 -11 -3 -64 10 -64 5 0 9 14 9 32 0 29 1 30 14 13 7
-10 11 -27 8 -38 -3 -12 1 -23 12 -29 9 -5 14 -14 10 -19 -3 -5 0 -8 7 -7 7 2
16 -8 20 -22 4 -14 7 -21 8 -16 1 11 31 -13 31 -25 0 -5 -7 -9 -15 -9 -8 0
-15 -4 -15 -10 0 -5 -9 -10 -20 -10 -13 0 -20 -7 -20 -19 0 -15 -10 -20 -47
-27 -64 -10 -89 -13 -148 -18 -27 -2 -70 -9 -95 -14 -38 -8 -42 -11 -22 -17
12 -4 22 -12 22 -17 0 -5 5 -6 10 -3 6 3 17 -1 26 -9 14 -15 13 -16 -7 -16
-21 0 -21 -1 -5 -19 17 -19 7 -39 -14 -26 -5 3 -10 2 -10 -3 0 -12 56 -33 64
-25 3 4 6 1 6 -5 0 -16 -17 -24 -25 -12 -8 12 -35 13 -35 1 0 -5 9 -11 20 -14
11 -3 20 -14 20 -25 0 -10 10 -24 23 -31 l22 -11 -22 6 c-16 4 -23 1 -23 -9 0
-10 14 -18 40 -22 30 -5 40 -11 40 -26 0 -10 -5 -19 -11 -19 -5 0 -8 -4 -5 -9
3 -4 17 -6 31 -3 17 3 25 0 25 -10 0 -8 9 -23 20 -33 19 -17 20 -17 20 0 0 10
-8 24 -17 31 -10 7 -13 14 -7 14 6 0 17 -7 24 -15 7 -8 19 -15 26 -15 8 0 14
-11 14 -26 0 -20 4 -25 16 -20 10 4 28 -4 47 -20 21 -17 37 -24 53 -20 16 4
24 1 29 -13 3 -10 24 -26 48 -37 40 -17 91 -63 124 -111 13 -19 13 -30 3 -73
-7 -27 -15 -50 -18 -50 -4 0 -8 -23 -9 -51 -3 -93 25 -47 87 143 11 34 52 108
59 108 3 0 13 -4 21 -10 8 -5 19 -5 25 0 11 9 104 -47 105 -62 0 -4 -19 -5
-42 -2 l-43 6 -18 -54 c-11 -29 -21 -64 -24 -78 -3 -14 -9 -27 -12 -30 -12
-10 -41 -81 -41 -100 0 -11 -3 -20 -7 -20 -5 0 -16 -12 -26 -25 -17 -24 -17
-24 20 -50 45 -30 28 -33 -26 -5 -40 20 -51 18 -51 -8 0 -25 -61 -142 -78
-151 -10 -4 -49 -11 -89 -14 -59 -5 -84 -13 -141 -45 l-70 -40 -43 25 c-61 34
-189 151 -189 172 0 12 35 37 113 79 180 97 394 202 427 208 16 4 30 10 30 15
0 19 -89 109 -145 147 -235 162 -496 134 -601 -64 -23 -43 -34 -211 -15 -224
9 -6 25 -61 22 -74 -1 -5 8 -19 20 -32 12 -13 17 -24 11 -24 -6 0 0 -12 13
-26 14 -15 25 -31 25 -36 0 -15 132 -140 173 -165 20 -12 53 -27 74 -33 21 -7
48 -16 61 -21 13 -5 38 -9 56 -9 26 0 33 4 32 17 -1 14 11 19 62 25 34 4 88
18 119 32 30 14 56 26 57 26 1 0 10 -16 20 -34 17 -32 67 -66 95 -66 6 0 11
-4 11 -10 0 -5 -5 -10 -11 -10 -5 0 -8 -4 -5 -9 3 -5 -7 -11 -22 -14 -15 -2
-50 -14 -79 -25 -28 -11 -54 -17 -57 -14 -3 2 -12 -1 -21 -8 -10 -8 -48 -12
-112 -12 -65 1 -100 -3 -105 -11 -6 -9 -11 -7 -19 6 -5 9 -21 17 -34 17 -31 0
-33 -17 -2 -23 22 -4 22 -4 -2 -6 -13 0 -37 11 -54 25 -26 22 -33 24 -41 12
-15 -20 -90 -11 -112 13 -21 24 -49 24 -94 0 l-34 -19 -19 25 -19 24 -25 -23
c-18 -17 -23 -31 -20 -51 4 -32 -13 -32 -28 1 -12 26 -18 27 -35 7 -7 -8 -22
-15 -34 -15 -35 0 -66 -12 -66 -24 0 -25 -72 -15 -143 22 -74 37 -137 46 -160
23 -8 -8 -3 -11 22 -11 30 0 114 -40 221 -104 19 -12 47 -27 61 -35 35 -17 69
-49 102 -92 35 -46 34 -53 -5 -45 -59 10 -63 1 -43 -110 9 -55 22 -109 27
-121 14 -28 69 -95 75 -90 2 3 -8 51 -22 107 -14 57 -25 112 -25 122 0 24 20
19 34 -8 41 -75 60 -97 109 -120 57 -26 153 -32 217 -14 22 6 38 6 44 0 6 -6
18 -10 27 -10 14 0 16 -6 8 -38 -4 -20 -15 -75 -24 -122 -9 -47 -22 -88 -28
-92 -15 -9 34 -28 103 -38 60 -9 353 -103 385 -124 11 -7 38 -19 60 -25 22 -7
75 -26 118 -42 184 -70 516 -91 758 -50 173 30 389 111 296 111 -29 0 -33 10
-42 131 -4 48 -10 92 -14 98 -4 6 -24 14 -44 18 -37 6 -37 6 -37 -31 0 -40 -2
-41 -32 -25 -11 6 -35 8 -53 5 -62 -12 -72 -101 -17 -159 18 -19 21 -26 9 -22
-13 6 -16 3 -11 -10 6 -15 3 -16 -24 -11 -17 4 -33 3 -36 -3 -4 -5 -28 -10
-54 -10 -26 0 -74 -3 -107 -6 -52 -4 -100 -5 -256 -6 -19 0 -46 4 -59 9 -16 6
31 11 146 16 93 4 192 9 219 12 28 3 66 7 85 8 20 2 34 8 33 14 -2 6 -7 48
-12 92 -5 45 -11 83 -14 86 -2 3 -21 8 -41 11 l-36 6 0 -49 c1 -27 5 -68 9
-92 7 -36 6 -42 -6 -38 -8 3 -17 6 -19 6 -2 0 -4 5 -4 12 0 6 -16 26 -37 44
l-36 32 28 25 c73 62 1 169 -124 184 -39 4 -57 2 -77 -12 -27 -17 -27 -18 -21
-105 8 -101 18 -137 44 -143 14 -3 13 -4 -2 -2 -11 1 -126 25 -255 53 -259 56
-453 92 -509 93 -20 0 -31 3 -24 5 8 4 7 11 -4 24 -17 19 -52 138 -53 176 0
12 -8 25 -17 29 -27 10 49 45 84 39 16 -3 55 -7 88 -8 33 -2 95 -9 139 -16 98
-14 124 -17 159 -19 16 0 26 -4 24 -8 -3 -5 5 -8 16 -9 12 0 101 -17 197 -37
257 -52 336 -66 425 -77 44 -5 114 -14 155 -20 41 -6 164 -13 273 -15 109 -3
216 -10 237 -16 22 -7 57 -9 83 -5 42 7 46 10 66 57 12 27 19 54 15 60 -10 16
-95 4 -109 -14 -6 -9 -24 -19 -40 -23 l-29 -7 22 37 c24 40 22 56 -6 56 -9 0
-54 12 -99 26 -87 29 -103 45 -103 104 0 16 -11 50 -25 76 -27 52 -29 58 -16
50 5 -4 11 -2 13 3 1 5 93 14 203 20 110 7 259 16 330 21 142 9 262 -4 276
-30 8 -14 113 -283 145 -373 62 -168 208 -373 341 -478 217 -171 532 -233
1168 -234 206 0 354 5 415 13 266 36 437 75 489 112 15 10 76 27 145 39 128
22 146 31 176 92 34 67 77 642 65 868 -12 222 -36 422 -69 586 -27 137 -29
157 -9 151 23 -7 180 99 276 187 69 62 127 136 127 162 0 8 5 17 10 20 6 3 10
50 10 106 0 54 4 99 8 99 5 0 17 -9 27 -20 25 -28 16 -136 -18 -213 -26 -56
-26 -65 -31 -310 -5 -274 -27 -500 -73 -745 -28 -151 -49 -202 -83 -202 -18 0
-31 30 -12 30 4 0 13 4 20 9 10 6 6 24 -19 82 -18 41 -42 88 -53 104 -12 17
-27 41 -34 55 -7 14 -24 38 -37 54 l-24 30 6 -114 c5 -95 10 -119 28 -147 13
-18 27 -61 33 -95 6 -35 14 -81 18 -103 5 -33 8 -37 14 -20 6 14 9 2 9 -38 1
-87 -23 -157 -78 -226 -42 -52 -50 -69 -61 -134 -7 -41 -10 -80 -6 -85 3 -6 2
-13 -3 -17 -5 -3 -9 -14 -8 -25 1 -22 -3 -25 60 49 9 12 17 25 17 29 0 4 13
19 28 32 76 68 132 178 147 292 5 41 10 49 33 54 27 7 86 56 103 85 18 34 64
276 90 479 5 41 12 81 14 88 3 7 0 10 -5 7 -6 -4 -10 5 -10 20 0 14 4 24 8 21
26 -16 54 520 41 764 -13 252 -50 560 -79 662 -15 54 -62 82 -98 59 -11 -7
-10 -19 4 -66 30 -107 0 -232 -80 -330 -31 -38 -33 -43 -20 -65 40 -73 -1
-177 -115 -290 -66 -66 -201 -162 -230 -164 -11 -1 -23 24 -42 81 -45 136 -48
141 -86 136 -18 -3 -58 3 -88 12 -57 18 -103 15 -160 -10 -16 -7 -46 -18 -65
-24 -19 -6 -82 -26 -140 -45 -58 -19 -168 -53 -245 -75 -77 -23 -153 -45 -170
-50 -16 -5 -55 -15 -85 -21 -30 -7 -77 -18 -105 -26 -99 -26 -448 -90 -680
-124 -375 -57 -869 -98 -1215 -103 -134 -2 -160 1 -188 16 -47 26 -35 30 34
12 49 -13 71 -13 131 -4 82 13 112 34 67 45 -27 7 -26 8 20 21 46 14 74 10 48
-6 -7 -4 -10 -14 -7 -23 5 -12 23 -14 92 -12 48 2 99 6 114 9 25 6 69 10 194
19 134 10 277 27 300 36 26 10 98 81 90 88 -3 3 12 23 33 46 20 23 46 59 57
81 11 22 26 46 33 53 29 31 93 190 112 277 5 22 14 54 20 70 28 71 27 463 -1
555 -6 19 -15 58 -19 85 -9 54 -13 71 -24 96 -4 9 -6 20 -5 25 4 21 -2 35 -11
29 -7 -4 -8 22 -4 77 3 46 10 85 15 86 5 2 9 12 9 23 0 10 4 19 9 19 5 0 12 9
16 19 3 11 19 34 35 51 l30 32 30 -63 c16 -35 30 -71 30 -79 0 -9 4 -20 8 -25
24 -27 91 -258 113 -385 21 -121 17 -337 -8 -455 -31 -141 -68 -251 -115 -340
-22 -42 -103 -161 -125 -183 -7 -7 -18 -21 -25 -30 -7 -9 -39 -41 -70 -69 -31
-29 -53 -55 -49 -57 12 -8 275 34 285 45 6 5 26 9 45 9 36 0 169 31 190 44 16
10 13 82 -4 100 -9 9 -15 33 -15 63 0 26 -4 43 -8 36 -4 -7 -7 11 -5 40 2 55
22 146 53 237 20 61 32 248 16 253 -5 2 -11 31 -14 65 -4 55 -2 62 14 63 34 3
186 -3 289 -10 55 -4 110 -4 122 0 30 11 32 6 87 -183 l45 -156 117 -156 c64
-86 120 -156 125 -156 13 0 11 26 -5 64 -8 19 -37 112 -66 207 -28 96 -58 193
-66 217 -18 56 -18 97 2 116 20 20 89 21 254 1 263 -30 503 -88 690 -165 l73
-30 23 21 c13 12 35 39 50 61 34 49 31 53 -92 106 -226 99 -555 169 -954 202
-73 6 -129 16 -136 23 -14 14 -54 133 -54 159 0 10 12 25 26 34 24 16 36 16
202 0 443 -44 845 -160 976 -281 59 -56 54 -34 -10 34 -69 75 -54 80 23 9 31
-29 49 -42 40 -28 -10 14 -58 62 -108 107 -68 62 -104 87 -139 97 -27 8 -60
22 -74 31 -14 10 -56 25 -93 35 -38 10 -90 25 -118 34 -27 8 -66 18 -85 21
-19 3 -64 12 -100 19 -159 35 -458 71 -526 63 -43 -4 -64 6 -64 31 0 8 -9 25
-19 38 -18 23 -61 149 -154 454 -19 63 -49 160 -66 216 -17 55 -31 106 -31
112 0 6 -4 14 -10 17 -12 8 -130 -54 -130 -68 0 -5 39 -137 86 -293 47 -157
84 -294 82 -307 -4 -22 -53 70 -144 270 -54 119 -85 168 -95 152 -6 -11 -20
-2 -60 36 -29 28 -49 41 -45 31 5 -15 4 -17 -7 -8 -18 16 -52 5 -172 -55 -159
-80 -321 -131 -465 -148 -30 -4 -82 -10 -114 -14 -52 -7 -57 -6 -40 6 17 12
80 33 114 38 8 1 31 9 50 18 19 9 70 30 112 46 133 52 182 79 206 114 12 18
22 38 22 44 0 5 28 25 63 43 205 108 281 152 295 168 17 23 15 56 -7 83 -22
27 -17 28 -150 -49 -100 -59 -522 -272 -538 -272 -7 0 -13 -4 -13 -10 0 -5 -4
-10 -9 -10 -5 0 -76 -32 -158 -71 -81 -39 -168 -80 -193 -91 -25 -11 -97 -44
-160 -73 -184 -85 -235 -108 -405 -184 -256 -115 -266 -121 -302 -176 -18 -27
-34 -53 -36 -58 -1 -5 -21 -11 -44 -14 -30 -4 -44 -11 -48 -24 -8 -24 -22 -24
-37 0 -10 17 -14 18 -34 5 -15 -10 -24 -12 -29 -5 -10 17 -17 14 -100 -49 -44
-33 -101 -76 -127 -96 -45 -33 -64 -54 -35 -38 16 10 16 10 -98 -108 -55 -57
-133 -140 -174 -185 -41 -45 -84 -84 -95 -87 -19 -5 -18 -7 14 -31 18 -14 40
-25 48 -25 10 0 13 -7 9 -21 -6 -23 19 -41 118 -86 33 -15 122 -58 198 -95
144 -71 152 -74 142 -58 -4 6 1 7 11 3 11 -4 13 -8 6 -11 -7 -2 -10 -8 -6 -13
3 -5 3 -9 1 -9 -5 0 -77 32 -182 80 -38 18 -92 41 -120 51 -27 11 -59 24 -70
29 -11 6 -62 25 -112 44 -91 33 -93 34 -93 12 -1 -52 -61 -71 -76 -24 -5 17
20 93 36 108 3 3 25 32 50 65 24 33 49 66 55 74 31 40 204 218 295 303 189
174 320 266 510 356 433 205 792 382 827 408 17 13 41 24 52 24 14 0 19 5 14
15 -4 12 0 15 21 11 14 -2 25 -2 25 2 -4 23 4 32 26 32 14 0 25 4 25 8 0 11
49 34 60 27 4 -3 8 1 7 8 -1 34 4 57 13 57 6 0 10 -9 10 -20 l0 -21 22 21 c12
11 28 20 35 20 7 0 13 7 13 16 0 11 6 13 19 9 11 -3 25 1 34 10 9 8 27 15 40
15 17 0 26 7 30 22 5 19 8 20 24 7 10 -7 15 -9 11 -5 -11 13 11 36 35 36 11 0
31 10 43 21 21 19 22 28 17 85 -3 35 -3 64 1 64 11 0 36 -27 36 -39 0 -6 6
-11 14 -11 8 0 17 -11 20 -24 4 -18 15 -25 42 -29 37 -6 94 14 94 33 0 6 6 10
14 10 11 0 26 20 26 35 0 3 -10 14 -22 25 -17 16 -18 19 -5 15 21 -8 21 -12
-2 55 -10 30 -24 54 -30 52 -6 -1 -11 7 -11 19 0 11 4 18 9 14 13 -7 -8 66
-23 85 -7 8 -28 50 -46 93 -21 49 -37 73 -41 65 -8 -12 -25 20 -73 137 -18 41
-41 54 -62 33 -15 -15 -37 -179 -27 -204 2 -6 -3 -16 -10 -23 -12 -9 -16 -8
-20 4 -4 9 -13 12 -24 8 -16 -6 -16 -5 -4 10 12 15 10 17 -17 17 -19 0 -32 6
-36 18 -3 9 -9 23 -12 31 -4 8 -3 11 2 8 5 -3 7 14 6 38 -4 39 -7 45 -34 50
-16 4 -32 13 -35 20 -2 8 -10 12 -18 9 -9 -4 -11 2 -8 20 3 14 10 26 15 26 6
0 7 11 4 25 -4 14 -2 34 4 45 9 16 8 18 -5 14 -8 -4 -15 -12 -15 -20 0 -8 -4
-14 -9 -14 -4 0 -8 -10 -8 -22 1 -56 -3 -68 -22 -68 -15 0 -18 6 -14 36 3 30
2 33 -10 22 -8 -7 -13 -18 -10 -24 2 -7 -1 -15 -7 -19 -7 -4 -14 2 -17 15 -5
18 -11 21 -39 16 -26 -5 -35 -2 -49 16 -13 20 -17 21 -25 8 -6 -10 -10 -11
-10 -2 0 6 -7 12 -15 12 -8 0 -15 -4 -15 -10 0 -5 5 -10 10 -10 6 0 10 -5 10
-11 0 -6 -7 -9 -15 -5 -8 3 -15 1 -15 -4 0 -15 -36 -21 -64 -11 -17 7 -26 7
-26 1 0 -6 5 -10 12 -10 24 0 -3 -13 -32 -15 -23 -2 -30 1 -30 16 0 10 -4 21
-10 24 -5 3 -10 1 -10 -4 0 -16 -38 -13 -42 2 -2 9 -12 11 -28 7 -25 -6 -24
-7 10 -22 19 -9 44 -19 55 -23 33 -12 0 -17 -39 -6 -30 8 -36 7 -36 -5 0 -9
-4 -13 -9 -10 -5 3 -7 14 -4 25 3 12 -2 20 -16 24 -13 3 -21 13 -21 27 0 13 4
19 12 14 7 -4 8 -3 4 4 -11 18 -35 2 -38 -26 -2 -21 -9 -28 -30 -30 -14 -2
-32 -10 -38 -18 -15 -16 -30 -19 -30 -3 0 5 5 7 10 4 6 -3 10 -1 10 4 0 6 1
14 3 18 1 4 -11 7 -28 8 -19 0 -29 -5 -27 -12 1 -7 -7 -13 -18 -13 -17 0 -19
3 -11 19 9 16 6 19 -19 23 -17 3 -30 0 -30 -6 -1 -6 -8 2 -16 17 -13 24 -17
27 -27 14 -15 -19 -57 -32 -57 -18 0 6 -7 8 -15 5 -8 -4 -15 -15 -15 -25 0
-24 -29 -25 -32 -1 0 9 -2 23 -2 31 -1 9 -16 15 -41 18 -25 2 -35 0 -27 -5 11
-7 10 -10 -3 -16 -28 -10 -45 -7 -45 10 0 10 -6 13 -18 10 -12 -4 -26 1 -37
14 -10 11 -25 20 -34 20 -13 -1 -13 -3 3 -15 20 -15 32 -75 16 -75 -9 0 -14
17 -13 48 1 6 -10 12 -23 12 -17 0 -24 6 -24 20 0 13 -5 18 -15 14 -22 -9 -19
-19 10 -34 37 -20 31 -30 -14 -24 -23 3 -42 1 -46 -5 -9 -16 -28 -13 -22 3 6
15 -13 26 -41 26 -16 -1 -15 -2 1 -14 9 -7 17 -18 17 -24 0 -6 5 -12 12 -14 9
-3 9 -6 0 -12 -7 -4 -12 -2 -12 3 0 6 -12 11 -26 11 -21 0 -25 4 -21 20 6 22
-3 26 -20 9 -18 -18 -37 -1 -21 19 11 13 10 15 -9 10 -26 -7 -46 12 -37 36 4
11 1 16 -10 16 -9 0 -16 -5 -16 -10z m-70 -64 c0 -3 -4 -8 -10 -11 -5 -3 -10
-1 -10 4 0 6 5 11 10 11 6 0 10 -2 10 -4z m-290 -21 c0 -9 -6 -12 -15 -9 -8 4
-15 10 -15 15 0 5 7 9 15 9 8 0 15 -7 15 -15z m70 -5 c0 -5 -2 -10 -4 -10 -3
0 -8 5 -11 10 -3 6 -1 10 4 10 6 0 11 -4 11 -10z m210 -15 c-7 -8 -17 -12 -23
-8 -6 4 -3 9 9 14 27 11 28 11 14 -6z m480 5 c0 -5 -5 -10 -11 -10 -5 0 -7 5
-4 10 3 6 8 10 11 10 2 0 4 -4 4 -10z m875 -1 c11 -17 -1 -21 -15 -4 -8 9 -8
15 -2 15 6 0 14 -5 17 -11z m-2045 -15 c0 -3 -7 -12 -15 -20 -16 -17 -18 -14
-9 10 6 15 24 23 24 10z m367 -9 c0 -8 -9 -15 -19 -15 -23 0 -24 17 0 23 9 3
17 5 18 6 0 0 1 -6 1 -14z m1778 -25 c3 -6 3 -10 -2 -10 -11 1 -43 26 -43 34
0 9 37 -11 45 -24z m-175 10 c0 -5 -7 -10 -15 -10 -8 0 -15 5 -15 10 0 6 7 10
15 10 8 0 15 -4 15 -10z m-990 -10 c0 -5 -7 -7 -15 -4 -8 4 -15 8 -15 10 0 2
7 4 15 4 8 0 15 -4 15 -10z m660 0 c0 -5 -4 -10 -10 -10 -5 0 -10 5 -10 10 0
6 5 10 10 10 6 0 10 -4 10 -10z m-1720 -10 c0 -5 -7 -10 -15 -10 -8 0 -15 5
-15 10 0 6 7 10 15 10 8 0 15 -4 15 -10z m1685 -9 c-3 -6 -14 -10 -23 -10 -15
1 -15 2 1 6 9 2 17 9 17 15 0 6 3 9 6 5 3 -3 3 -10 -1 -16z m-1645 -1 c8 -5
11 -12 7 -16 -4 -4 -15 0 -24 9 -18 18 -8 23 17 7z m2060 -10 c0 -5 -4 -10
-10 -10 -5 0 -10 5 -10 10 0 6 5 10 10 10 6 0 10 -4 10 -10z m250 -20 c0 -5
-7 -10 -15 -10 -8 0 -15 5 -15 10 0 6 7 10 15 10 8 0 15 -4 15 -10z m-2540
-33 c0 -5 -4 -5 -10 -2 -5 3 -10 14 -10 23 0 15 2 15 10 2 5 -8 10 -19 10 -23z
m1280 -57 c0 -5 -4 -10 -10 -10 -5 0 -10 5 -10 10 0 6 5 10 10 10 6 0 10 -4
10 -10z m-1620 -140 c0 -5 -4 -10 -10 -10 -5 0 -10 5 -10 10 0 6 5 10 10 10 6
0 10 -4 10 -10z m-53 -52 c-3 -8 -6 -5 -6 6 -1 11 2 17 5 13 3 -3 4 -12 1 -19z
m2 -82 c9 -11 9 -16 0 -21 -10 -7 -28 10 -29 28 0 12 17 8 29 -7z m3345 -21
c-7 -16 -24 -21 -24 -6 0 8 7 13 27 20 1 1 0 -6 -3 -14z m-3379 -64 c3 -5 1
-12 -5 -16 -5 -3 -10 1 -10 9 0 18 6 21 15 7z m-95 -100 c-1 -16 -17 -29 -28
-22 -17 10 -4 41 14 34 8 -3 14 -8 14 -12z m3280 -41 c0 -5 -2 -10 -4 -10 -3
0 -8 5 -11 10 -3 6 -1 10 4 10 6 0 11 -4 11 -10z m-3278 -53 c-4 -14 -7 -16
-13 -5 -12 19 -11 25 5 25 8 0 11 -8 8 -20z m3234 -4 c-10 -10 -19 5 -10 18 6
11 8 11 12 0 2 -7 1 -15 -2 -18z m-76 -9 c0 -2 -9 -4 -20 -4 -11 0 -20 4 -20
9 0 5 9 7 20 4 11 -3 20 -7 20 -9z m-3203 0 c-3 -3 -12 -4 -19 -1 -8 3 -5 6 6
6 11 1 17 -2 13 -5z m-47 -14 c0 -5 -2 -10 -4 -10 -3 0 -8 5 -11 10 -3 6 -1
10 4 10 6 0 11 -4 11 -10z m10 -36 c0 -2 -7 -4 -15 -4 -8 0 -15 4 -15 10 0 5
7 7 15 4 8 -4 15 -8 15 -10z m-40 -8 c0 -8 -4 -18 -10 -21 -5 -3 -10 3 -10 14
0 12 5 21 10 21 6 0 10 -6 10 -14z m30 -16 c0 -5 -4 -10 -10 -10 -5 0 -10 5
-10 10 0 6 5 10 10 10 6 0 10 -4 10 -10z m2 -52 c-11 -11 -32 -3 -32 12 0 4 9
6 21 3 13 -4 17 -9 11 -15z m21 -108 c-10 -11 -19 -20 -21 -20 -1 0 2 9 8 20
6 11 15 20 20 20 6 0 2 -9 -7 -20z m3830 -50 c-4 -42 -2 -60 5 -60 19 0 55
-66 146 -270 48 -107 102 -218 121 -247 36 -54 96 -102 154 -121 43 -15 41
-15 41 6 1 32 27 -30 55 -129 14 -52 28 -102 32 -113 5 -18 -3 -18 -218 -13
-189 5 -224 9 -232 22 -15 27 -84 355 -102 485 -25 180 -24 500 1 500 2 0 1
-27 -3 -60z m-3853 -50 c0 -5 -4 -10 -10 -10 -5 0 -10 5 -10 10 0 6 5 10 10
10 6 0 10 -4 10 -10z m-63 -22 c-3 -8 -6 -5 -6 6 -1 11 2 17 5 13 3 -3 4 -12
1 -19z m-27 -184 c0 -8 -4 -12 -10 -9 -5 3 -10 10 -10 16 0 5 5 9 10 9 6 0 10
-7 10 -16z m3920 -34 c0 -5 -4 -10 -10 -10 -5 0 -10 5 -10 10 0 6 5 10 10 10
6 0 10 -4 10 -10z m-968 -138 c16 -42 22 -79 22 -137 1 -141 -55 -246 -162
-303 -124 -66 -235 -51 -331 46 -31 31 -67 79 -79 105 l-23 49 34 41 c107 130
247 245 371 303 l71 34 37 -41 c20 -22 47 -66 60 -97z m-2992 61 c0 -5 -5 -15
-10 -23 -8 -12 -10 -11 -10 8 0 12 5 22 10 22 6 0 10 -3 10 -7z m60 -32 c0
-15 -15 -21 -39 -14 -17 4 -19 8 -9 14 18 12 48 11 48 0z m42 -43 c-7 -7 -12
-8 -12 -2 0 14 12 26 19 19 2 -3 -1 -11 -7 -17z m-37 -18 c3 -5 1 -10 -4 -10
-6 0 -11 5 -11 10 0 6 2 10 4 10 3 0 8 -4 11 -10z m-55 -4 c0 -2 -7 -6 -15
-10 -8 -3 -15 -1 -15 4 0 6 7 10 15 10 8 0 15 -2 15 -4z m4384 -42 c17 -16 22
-54 8 -54 -8 0 -16 14 -40 63 -7 13 16 7 32 -9z m-4382 -116 c-7 -7 -12 -8
-12 -2 0 14 12 26 19 19 2 -3 -1 -11 -7 -17z m3935 -20 c-3 -8 -6 -5 -6 6 -1
11 2 17 5 13 3 -3 4 -12 1 -19z m53 -192 c24 -108 38 -289 29 -351 -4 -26 -7
-1 -8 70 -3 122 -4 128 -31 269 -20 101 -23 123 -16 115 3 -3 15 -49 26 -103z
m650 83 c0 -6 -4 -7 -10 -4 -5 3 -10 11 -10 16 0 6 5 7 10 4 6 -3 10 -11 10
-16z m-4280 -145 c0 -8 -4 -14 -10 -14 -5 0 -10 9 -10 21 0 11 5 17 10 14 6
-3 10 -13 10 -21z m-43 -21 c-3 -10 -5 -4 -5 12 0 17 2 24 5 18 2 -7 2 -21 0
-30z m188 -23 c3 -5 1 -10 -4 -10 -6 0 -11 5 -11 10 0 6 2 10 4 10 3 0 8 -4
11 -10z m3592 -137 c-3 -10 -5 -4 -5 12 0 17 2 24 5 18 2 -7 2 -21 0 -30z
m-3577 -13 c8 -5 11 -12 8 -16 -4 -3 -14 1 -23 10 -18 17 -9 21 15 6z m64 -32
c-5 -7 -1 -9 13 -6 17 4 22 0 26 -21 5 -27 -6 -41 -33 -41 -11 1 -10 4 5 16
19 14 19 15 -3 20 -22 6 -32 44 -11 44 5 0 7 -5 3 -12z m5586 -24 c0 -8 -4
-14 -10 -14 -5 0 -10 9 -10 21 0 11 5 17 10 14 6 -3 10 -13 10 -21z m-2051
-27 c0 -27 -2 -29 -9 -12 -12 28 -12 57 0 50 6 -3 10 -21 9 -38z m638 11 c-3
-8 -6 -5 -6 6 -1 11 2 17 5 13 3 -3 4 -12 1 -19z m-4177 -58 c-14 -11 -31 -25
-37 -30 -9 -8 -13 -7 -13 1 0 15 41 48 60 48 10 0 7 -6 -10 -19z m173 -53 c-3
-5 -14 0 -24 9 -14 13 -16 20 -7 25 13 8 40 -20 31 -34z m3263 -19 c-12 -95
-56 -257 -100 -361 -37 -91 -117 -227 -133 -227 -3 0 2 10 11 23 90 126 169
326 202 516 18 107 31 137 20 49z m-3406 22 c0 -5 -12 -10 -26 -10 -14 0 -23
4 -19 10 3 6 15 10 26 10 10 0 19 -4 19 -10z m150 -44 c0 -3 -4 -8 -10 -11 -5
-3 -10 -1 -10 4 0 6 5 11 10 11 6 0 10 -2 10 -4z m5494 -78 c4 -40 9 -104 11
-143 3 -38 9 -86 13 -105 11 -46 13 -314 4 -410 l-8 -75 -8 130 c-4 72 -12
184 -18 250 -6 66 -12 165 -13 220 -1 55 -6 112 -10 127 -8 31 0 78 14 78 5 0
12 -33 15 -72z m-99 -38 c3 -5 1 -10 -4 -10 -6 0 -11 5 -11 10 0 6 2 10 4 10
3 0 8 -4 11 -10z m-4065 -40 c0 -5 -4 -10 -10 -10 -5 0 -10 5 -10 10 0 6 5 10
10 10 6 0 10 -4 10 -10z m10 -55 c0 -5 -5 -3 -10 5 -5 8 -10 20 -10 25 0 6 5
3 10 -5 5 -8 10 -19 10 -25z m20 -68 c0 -10 -4 -15 -10 -12 -5 3 -10 18 -10
33 0 21 2 24 10 12 5 -8 10 -23 10 -33z m-1750 13 c0 -11 -4 -20 -10 -20 -5 0
-10 9 -10 20 0 11 5 20 10 20 6 0 10 -9 10 -20z m1774 -83 c4 -17 3 -26 -2
-23 -6 3 -12 19 -14 36 -6 37 7 27 16 -13z m23 -79 c-3 -8 -6 -5 -6 6 -1 11 2
17 5 13 3 -3 4 -12 1 -19z m3233 -28 c0 -5 -7 -10 -16 -10 -8 0 -12 5 -9 10 3
6 10 10 16 10 5 0 9 -4 9 -10z m-3197 -45 c19 -41 21 -55 7 -55 -5 0 -10 8
-10 18 0 9 -7 26 -15 36 -17 22 -19 36 -7 36 5 0 16 -16 25 -35z m3395 1 c3
-12 -1 -17 -10 -14 -7 3 -15 13 -16 22 -3 12 1 17 10 14 7 -3 15 -13 16 -22z
m-3761 8 c-3 -3 -12 -4 -19 -1 -8 3 -5 6 6 6 11 1 17 -2 13 -5z m3348 -41
c-68 -37 -488 -163 -501 -150 -3 3 257 85 410 128 39 11 77 24 85 29 9 5 21 9
26 9 6 0 -3 -7 -20 -16z m244 -13 c10 -5 23 -22 29 -37 20 -51 41 -148 34
-155 -33 -32 -481 -194 -508 -184 -8 3 -13 2 -10 -3 10 -15 -47 -20 -61 -5
-17 16 -39 18 -48 4 -3 -6 4 -10 16 -10 22 0 22 0 -2 -19 -59 -46 -576 -168
-1019 -240 -208 -34 -663 -94 -805 -106 -87 -8 -95 -2 -128 90 -14 39 -34 91
-46 117 -13 30 -16 50 -10 54 6 3 61 8 122 10 62 3 204 14 317 24 113 11 234
23 270 26 151 14 640 102 855 155 150 36 239 48 250 34 6 -6 21 -15 34 -20 21
-6 23 -5 17 22 -7 29 -6 30 61 48 105 28 300 97 543 191 42 16 65 17 89 4z
m-3585 -46 c3 -8 2 -12 -4 -9 -6 3 -10 10 -10 16 0 14 7 11 14 -7z m-632 -14
c23 -11 52 -20 64 -20 13 0 26 -5 30 -12 5 -8 -5 -9 -37 -4 -72 11 -150 37
-144 47 10 15 43 11 87 -11z m1038 -1 c0 -6 -4 -7 -10 -4 -5 3 -10 11 -10 16
0 6 5 7 10 4 6 -3 10 -11 10 -16z m269 -142 c28 -62 23 -77 -28 -77 -39 0 -39
0 -65 66 -14 37 -23 71 -20 75 3 5 1 9 -4 9 -6 0 -13 7 -16 16 -5 14 0 15 34
12 31 -3 40 0 40 12 0 8 9 -3 19 -25 10 -22 28 -62 40 -88z m176 33 c9 -32 2
-25 -20 20 -13 27 -14 32 -2 20 8 -8 18 -26 22 -40z m-1066 10 c19 0 113 -97
102 -104 -6 -4 -29 11 -52 33 -22 23 -46 41 -54 41 -15 0 -55 38 -55 53 0 5
11 2 25 -7 13 -9 29 -16 34 -16z m761 -84 c0 -6 -7 -2 -15 8 -8 11 -15 25 -15
30 0 6 7 2 15 -8 8 -11 15 -25 15 -30z m-1070 24 c0 -5 -4 -10 -9 -10 -6 0
-13 5 -16 10 -3 6 1 10 9 10 9 0 16 -4 16 -10z m-26 -100 c4 -4 -2 -11 -14
-15 -26 -8 -21 -29 8 -33 12 -2 22 -9 22 -17 0 -30 -76 12 -80 45 -5 36 0 42
28 35 15 -3 31 -10 36 -15z m4226 -30 c0 -5 -10 -10 -22 -10 -19 0 -20 2 -8
10 19 13 30 13 30 0z m-4150 -69 c0 -6 -4 -13 -10 -16 -5 -3 -10 1 -10 9 0 9
5 16 10 16 6 0 10 -4 10 -9z m3853 -41 c-129 -54 -444 -150 -490 -150 -34 1 8
16 202 74 105 31 226 70 270 86 115 42 126 36 18 -10z m332 10 c9 -10 20 -40
23 -66 l5 -48 -61 49 c-34 26 -62 54 -62 61 0 28 70 32 95 4z m-705 -40 c-8
-5 -22 -9 -30 -9 -10 0 -8 3 5 9 27 12 43 12 25 0z m590 -1 c0 -5 5 -7 12 -3
7 4 8 3 4 -4 -4 -6 -13 -9 -21 -5 -17 6 -20 23 -5 23 6 0 10 -5 10 -11z
m-2744 -85 c9 -31 25 -76 36 -101 33 -75 5 -103 -101 -103 -49 0 -55 7 -60 65
-2 27 -11 80 -20 117 l-17 67 55 13 c33 8 63 11 73 6 10 -5 25 -34 34 -64z
m2101 70 c-3 -3 -12 -4 -19 -1 -8 3 -5 6 6 6 11 1 17 -2 13 -5z m686 -25 c4
-16 3 -18 -9 -8 -16 13 -19 29 -5 29 5 0 11 -9 14 -21z m-788 -4 c-22 -8 -49
-13 -60 -13 -11 0 0 6 25 13 59 17 87 17 35 0z m698 -80 c123 -98 204 -171
219 -199 27 -51 26 -471 -2 -761 -15 -153 -24 -183 -58 -191 -15 -4 -58 -20
-97 -35 -250 -99 -611 -146 -1055 -137 -135 2 -222 2 -195 -2 48 -7 46 -7 -25
-8 -132 -3 -440 40 -440 61 0 6 -3 7 -7 4 -3 -4 -11 -1 -17 7 -6 7 -33 21 -60
30 -88 29 -179 87 -256 165 -41 42 -80 87 -87 101 -6 14 -32 67 -57 119 -32
64 -43 97 -37 105 6 7 46 27 91 45 44 19 83 38 86 42 3 5 14 9 24 9 10 0 22 5
25 11 12 19 -3 22 -27 5 -12 -9 -30 -16 -39 -16 -9 0 -51 -16 -94 -36 -64 -29
-80 -33 -89 -22 -7 7 -30 58 -51 113 -21 55 -43 107 -50 115 -7 8 -22 36 -33
62 -20 46 -20 48 -3 58 10 5 67 14 127 20 60 5 201 24 314 40 113 17 257 37
320 46 63 8 144 22 180 30 36 8 92 17 125 19 33 2 130 20 215 39 85 19 178 40
205 47 28 6 75 19 105 30 30 10 65 16 77 13 25 -7 202 43 408 114 77 27 145
46 150 42 6 -4 54 -42 108 -85z m-2524 15 c1 -13 0 -13 -9 0 -5 8 -9 24 -9 35
l0 20 9 -20 c5 -11 9 -27 9 -35z m1664 23 c-7 -2 -19 -2 -25 0 -7 3 -2 5 12 5
14 0 19 -2 13 -5z m-68 -13 c-27 -12 -43 -12 -25 0 8 5 22 9 30 9 10 0 8 -3
-5 -9z m-2004 -140 c6 -16 15 -30 21 -30 5 0 6 -4 3 -10 -11 -17 -24 -11 -40
20 -18 34 -19 50 -4 50 5 0 15 -13 20 -30z m-1608 0 c-3 -11 -9 -20 -14 -20
-14 0 -11 28 4 33 6 3 13 6 14 6 0 1 -1 -8 -4 -19z m65 -5 c3 -3 -7 -5 -21 -5
-15 0 -27 4 -27 9 0 10 38 7 48 -4z m1576 0 c-4 -8 -8 -15 -10 -15 -2 0 -4 7
-4 15 0 8 4 15 10 15 5 0 7 -7 4 -15z m-143 -22 c7 -19 5 -23 -11 -23 -13 0
-18 5 -14 15 4 9 0 15 -10 15 -9 0 -16 5 -16 11 0 19 43 4 51 -18z m-84 2 c3
-9 3 -19 -1 -22 -7 -7 -36 16 -36 28 0 15 30 10 37 -6z m-67 -5 c0 -5 -4 -10
-10 -10 -5 0 -10 5 -10 10 0 6 5 10 10 10 6 0 10 -4 10 -10z m-880 -180 c0 -5
-4 -10 -10 -10 -5 0 -10 5 -10 10 0 6 5 10 10 10 6 0 10 -4 10 -10z m-260 -13
c42 3 110 3 152 -1 l75 -7 6 -87 c4 -48 10 -118 14 -156 l6 -69 -25 6 c-13 4
-81 12 -149 18 -140 13 -176 26 -232 88 -28 32 -37 50 -37 78 0 66 74 161 104
132 5 -4 44 -5 86 -2z m427 -104 c60 -22 314 -26 335 -5 6 6 29 12 50 12 35 0
38 -3 39 -27 1 -16 0 -32 -1 -38 -2 -5 -5 -23 -6 -40 -2 -16 -9 -65 -15 -107
-10 -69 -14 -77 -38 -87 -59 -23 -111 -32 -211 -38 -184 -10 -232 19 -243 149
-4 40 -10 108 -13 152 l-7 78 31 -16 c17 -9 52 -24 79 -33z m1573 -38 c0 -5
-5 -3 -10 5 -5 8 -10 20 -10 25 0 6 5 3 10 -5 5 -8 10 -19 10 -25z m-3169 -22
c13 -17 13 -17 -6 -3 -11 8 -22 16 -24 17 -2 2 0 3 6 3 6 0 17 -8 24 -17z
m238 -62 c23 -15 -3 -20 -34 -6 -29 13 -29 13 -5 14 14 0 31 -3 39 -8z m5791
-6 c0 -8 -2 -15 -4 -15 -2 0 -6 7 -10 15 -3 8 -1 15 4 15 6 0 10 -7 10 -15z
m108 -37 c17 -17 16 -44 -1 -29 -8 6 -16 8 -19 6 -3 -3 -8 3 -11 15 -6 22 12
27 31 8z m62 -68 c0 -5 -4 -10 -10 -10 -5 0 -10 5 -10 10 0 6 5 10 10 10 6 0
10 -4 10 -10z m-4649 -190 c10 -6 19 -20 19 -30 0 -16 -7 -20 -30 -20 -32 0
-47 18 -36 45 6 18 20 19 47 5z m1833 -100 c38 -64 47 -84 27 -61 -28 32 -91
140 -91 157 0 11 2 8 64 -96z m-1823 -77 c22 -23 27 -34 16 -30 -10 4 -32 7
-48 7 -22 0 -28 4 -22 13 4 6 6 20 5 30 -5 27 11 20 49 -20z m399 22 c17 -20
8 -50 -14 -50 -23 0 -41 27 -33 49 8 20 31 21 47 1z m-317 -62 c-7 -2 -19 -2
-25 0 -7 3 -2 5 12 5 14 0 19 -2 13 -5z m4017 -114 c0 -6 -4 -7 -10 -4 -5 3
-10 11 -10 16 0 6 5 7 10 4 6 -3 10 -11 10 -16z m5 -69 c3 -5 1 -10 -4 -10 -6
0 -11 5 -11 10 0 6 2 10 4 10 3 0 8 -4 11 -10z m-452 -110 c-13 -5 -62 -17
-110 -26 -111 -20 -489 -32 -506 -15 -8 8 21 11 114 13 68 0 135 2 149 3 14 1
71 5 125 9 107 8 167 15 174 22 2 2 20 4 40 3 32 0 33 -1 14 -9z"/>
<path d="M7532 2635 c15 -16 29 -27 31 -24 3 2 -10 15 -27 28 l-31 24 27 -28z"/>
<path d="M6773 1455 c-12 -8 -33 -16 -46 -17 -16 -1 -23 -7 -20 -15 3 -7 9
-13 14 -13 5 0 9 -7 9 -15 0 -20 46 -30 76 -16 14 6 52 11 86 11 54 0 59 2 47
16 -8 9 -22 14 -37 11 -19 -4 -23 -1 -19 13 4 15 -1 17 -34 13 -32 -5 -39 -2
-39 11 0 20 -9 20 -37 1z"/>
<path d="M6494 1413 c31 -27 86 -43 144 -43 48 0 51 6 18 38 -20 19 -37 23
-106 25 l-82 2 26 -22z"/>
<path d="M6995 1410 c-3 -5 -1 -10 4 -10 6 0 11 5 11 10 0 6 -2 10 -4 10 -3 0
-8 -4 -11 -10z"/>
<path d="M3592 5875 c0 -16 2 -22 5 -12 2 9 2 23 0 30 -3 6 -5 -1 -5 -18z"/>
<path d="M5520 5884 c0 -8 5 -12 10 -9 6 4 8 11 5 16 -9 14 -15 11 -15 -7z"/>
<path d="M3768 5873 c7 -3 16 -2 19 1 4 3 -2 6 -13 5 -11 0 -14 -3 -6 -6z"/>
<path d="M5350 5871 c0 -6 4 -13 10 -16 6 -3 7 1 4 9 -7 18 -14 21 -14 7z"/>
<path d="M4965 5860 c4 -6 11 -8 16 -5 14 9 11 15 -7 15 -8 0 -12 -5 -9 -10z"/>
<path d="M5485 5860 c-8 -13 4 -32 16 -25 12 8 12 35 0 35 -6 0 -13 -4 -16
-10z"/>
<path d="M2955 5850 c-3 -5 -1 -10 4 -10 6 0 11 5 11 10 0 6 -2 10 -4 10 -3 0
-8 -4 -11 -10z"/>
<path d="M3001 5844 c0 -11 3 -14 6 -6 3 7 2 16 -1 19 -3 4 -6 -2 -5 -13z"/>
<path d="M3175 5850 c3 -5 11 -10 16 -10 6 0 7 5 4 10 -3 6 -11 10 -16 10 -6
0 -7 -4 -4 -10z"/>
<path d="M3470 5850 c0 -5 7 -10 16 -10 8 0 12 5 9 10 -3 6 -10 10 -16 10 -5
0 -9 -4 -9 -10z"/>
<path d="M3240 5835 c0 -8 4 -15 9 -15 5 0 11 -10 15 -22 4 -17 8 -20 17 -11
8 8 7 18 -7 37 -22 29 -34 33 -34 11z"/>
<path d="M3395 5840 c-3 -5 -16 -10 -28 -10 -12 0 -29 -5 -37 -11 -12 -8 -8
-9 15 -5 17 2 37 1 45 -4 16 -10 42 -2 34 11 -3 5 -10 7 -15 4 -5 -3 -6 1 -3
9 7 18 -1 22 -11 6z"/>
<path d="M3600 5840 c-17 -11 -14 -12 30 -14 17 0 30 2 30 7 0 4 -4 7 -9 7 -5
0 -15 2 -23 5 -7 3 -20 0 -28 -5z"/>
<path d="M5243 5843 c9 -2 23 -2 30 0 6 3 -1 5 -18 5 -16 0 -22 -2 -12 -5z"/>
<path d="M4823 5833 c9 -2 23 -2 30 0 6 3 -1 5 -18 5 -16 0 -22 -2 -12 -5z"/>
<path d="M4957 5833 c-4 -3 -7 -13 -7 -21 0 -12 3 -12 15 -2 11 9 15 9 15 1 0
-7 5 -9 10 -6 17 10 11 35 -8 35 -10 0 -22 -3 -25 -7z"/>
<path d="M5196 5831 c-9 -14 5 -42 16 -35 6 4 5 10 -3 15 -12 8 -11 11 1 19 9
6 10 10 3 10 -6 0 -14 -4 -17 -9z"/>
<path d="M3560 5805 c-14 -16 -3 -20 19 -6 8 5 9 11 3 15 -5 3 -15 -1 -22 -9z"/>
<path d="M3110 5800 c0 -5 5 -10 10 -10 6 0 10 5 10 10 0 6 -4 10 -10 10 -5 0
-10 -4 -10 -10z"/>
<path d="M3070 5770 c0 -5 5 -10 10 -10 6 0 10 5 10 10 0 6 -4 10 -10 10 -5 0
-10 -4 -10 -10z"/>
<path d="M6030 5696 c0 -28 12 -46 31 -46 19 0 24 16 13 44 -8 20 -44 21 -44
2z"/>
<path d="M2780 5642 c0 -12 19 -26 26 -19 2 2 -2 10 -11 17 -9 8 -15 8 -15 2z"/>
<path d="M2736 5624 c-11 -28 11 -95 24 -74 9 15 1 50 -12 50 -5 0 -6 9 -3 20
7 24 0 27 -9 4z"/>
<path d="M2680 5606 c0 -8 4 -17 9 -20 5 -4 7 3 4 14 -6 23 -13 26 -13 6z"/>
<path d="M2655 5570 c-3 -5 -2 -10 4 -10 5 0 13 5 16 10 3 6 2 10 -4 10 -5 0
-13 -4 -16 -10z"/>
<path d="M7048 5541 c-14 -12 -34 -21 -44 -21 -17 0 -43 -15 -201 -117 -79
-51 -82 -54 -72 -79 16 -44 19 -45 57 -23 138 83 296 215 291 243 -4 17 -6 17
-31 -3z"/>
<path d="M2635 5539 c-11 -17 1 -21 15 -4 8 9 8 15 2 15 -6 0 -14 -5 -17 -11z"/>
<path d="M2678 5523 c7 -3 16 -2 19 1 4 3 -2 6 -13 5 -11 0 -14 -3 -6 -6z"/>
<path d="M2640 5500 c0 -5 5 -10 10 -10 6 0 10 5 10 10 0 6 -4 10 -10 10 -5 0
-10 -4 -10 -10z"/>
<path d="M2555 5341 c-3 -5 -1 -12 5 -16 5 -3 10 1 10 9 0 18 -6 21 -15 7z"/>
<path d="M2605 5340 c-3 -5 -1 -10 4 -10 6 0 11 5 11 10 0 6 -2 10 -4 10 -3 0
-8 -4 -11 -10z"/>
<path d="M6797 5275 c-20 -14 -37 -30 -37 -36 0 -6 5 -6 13 1 6 6 27 22 46 35
46 33 26 32 -22 0z"/>
<path d="M6625 5250 c-3 -5 -1 -10 4 -10 6 0 11 5 11 10 0 6 -2 10 -4 10 -3 0
-8 -4 -11 -10z"/>
<path d="M2473 5235 c-3 -9 -3 -19 1 -22 3 -4 6 1 6 10 0 10 5 14 15 11 8 -4
15 -1 15 5 0 17 -30 13 -37 -4z"/>
<path d="M6560 5214 c0 -8 5 -12 10 -9 6 4 8 11 5 16 -9 14 -15 11 -15 -7z"/>
<path d="M2377 4902 c-10 -10 -14 -22 -10 -25 12 -13 21 -7 25 18 6 30 6 30
-15 7z"/>
<path d="M5595 4890 c-3 -5 -1 -10 4 -10 6 0 11 5 11 10 0 6 -2 10 -4 10 -3 0
-8 -4 -11 -10z"/>
<path d="M2260 4719 c0 -11 21 -11 39 0 9 6 5 9 -13 9 -14 0 -26 -4 -26 -9z"/>
<path d="M2325 4680 c-3 -5 -1 -10 4 -10 6 0 11 5 11 10 0 6 -2 10 -4 10 -3 0
-8 -4 -11 -10z"/>
<path d="M2310 4646 c0 -9 5 -16 10 -16 6 0 10 4 10 9 0 6 -4 13 -10 16 -5 3
-10 -1 -10 -9z"/>
<path d="M2295 4600 c3 -5 8 -10 11 -10 2 0 4 5 4 10 0 6 -5 10 -11 10 -5 0
-7 -4 -4 -10z"/>
<path d="M2310 4571 c0 -6 5 -11 10 -11 6 0 10 -7 10 -15 0 -8 -7 -15 -15 -15
-8 0 -15 -4 -15 -10 0 -15 19 -12 37 6 12 12 14 21 7 32 -13 19 -34 28 -34 13z"/>
<path d="M2235 4279 c-4 -6 -5 -12 -2 -15 2 -3 7 2 10 11 7 17 1 20 -8 4z"/>
<path d="M2266 4255 c-3 -8 -1 -15 4 -15 6 0 10 7 10 15 0 8 -2 15 -4 15 -2 0
-6 -7 -10 -15z"/>
<path d="M2280 4104 c0 -8 5 -12 10 -9 6 3 10 10 10 16 0 5 -4 9 -10 9 -5 0
-10 -7 -10 -16z"/>
<path d="M2560 3836 c0 -8 4 -17 8 -20 13 -8 35 11 28 23 -10 16 -36 14 -36
-3z"/>
<path d="M2700 3755 c0 -5 5 -17 10 -25 5 -8 10 -10 10 -5 0 6 -5 17 -10 25
-5 8 -10 11 -10 5z"/>
<path d="M2815 3600 c3 -5 16 -10 28 -10 18 0 19 2 7 10 -20 13 -43 13 -35 0z"/>
<path d="M8378 3441 c-10 -10 -18 -23 -18 -29 0 -7 -4 -12 -10 -12 -5 0 -32
-19 -59 -42 -86 -75 -175 -130 -317 -199 -90 -43 -93 -49 -47 -99 l23 -25 43
24 c184 105 369 250 402 315 8 17 21 39 28 49 10 14 9 19 -3 27 -20 13 -22 12
-42 -9z"/>
<path d="M6798 3440 c30 -13 19 -32 -13 -24 -20 5 -27 1 -34 -19 -5 -14 -15
-28 -20 -32 -6 -3 -11 -17 -11 -30 0 -13 -3 -25 -7 -28 -5 -2 -3 -2 4 -1 7 2
15 -1 18 -6 3 -4 25 -20 50 -33 37 -21 51 -24 77 -16 50 14 97 2 104 -28 6
-22 8 -23 23 -8 10 8 25 15 34 15 9 0 17 4 17 10 0 16 -121 140 -131 134 -5
-3 -9 1 -9 8 0 17 -60 56 -97 63 -26 5 -26 5 -5 -5z"/>
<path d="M2558 3283 c6 -2 18 -2 25 0 6 3 1 5 -13 5 -14 0 -19 -2 -12 -5z"/>
<path d="M8345 3250 c4 -14 11 -43 15 -65 9 -38 9 -38 6 13 -2 29 -9 59 -16
65 -10 10 -11 7 -5 -13z"/>
<path d="M2545 3250 c-7 -11 38 -21 48 -11 5 5 -3 11 -18 13 -14 3 -28 2 -30
-2z"/>
<path d="M810 3211 c0 -6 4 -13 10 -16 6 -3 7 1 4 9 -7 18 -14 21 -14 7z"/>
<path d="M6910 2943 c0 -19 11 -43 21 -43 13 0 11 14 -6 36 -8 10 -15 14 -15
7z"/>
<path d="M1300 2255 c0 -4 21 -53 46 -109 64 -138 67 -153 43 -177 -16 -16
-19 -32 -18 -96 1 -66 2 -73 10 -45 13 42 22 41 17 -3 -3 -27 -1 -34 11 -32 9
1 16 -4 16 -12 0 -17 61 -50 107 -57 28 -5 41 0 77 30 24 20 52 36 63 36 24 0
191 -44 269 -71 30 -10 61 -19 69 -19 26 0 -3 15 -78 41 -42 15 -90 31 -107
37 -16 6 -61 20 -100 33 -38 12 -74 26 -80 30 -5 5 -15 9 -23 9 -18 0 -33 17
-57 65 -11 21 -47 69 -80 106 -33 37 -82 101 -108 142 -45 71 -77 109 -77 92z
m160 -445 c0 -5 -2 -10 -4 -10 -3 0 -8 5 -11 10 -3 6 -1 10 4 10 6 0 11 -4 11
-10z m108 -45 c1 -1 -11 -2 -26 -1 -19 1 -28 5 -25 13 4 10 10 10 26 1 12 -6
23 -12 25 -13z"/>
<path d="M1720 1989 c0 -5 5 -7 10 -4 6 3 10 8 10 11 0 2 -4 4 -10 4 -5 0 -10
-5 -10 -11z"/>
<path d="M8190 1830 c-1 -3 -3 -28 -5 -57 -1 -39 1 -50 12 -46 7 3 12 15 12
27 -2 26 -16 83 -19 76z"/>
<path d="M3083 1503 c-21 -8 -14 -42 12 -59 46 -30 88 13 46 48 -23 18 -36 21
-58 11z"/>
<path d="M3391 1436 c-15 -18 -6 -40 24 -56 49 -26 78 23 33 54 -28 20 -42 20
-57 2z"/>
<path d="M5172 1379 c-32 -13 -25 -43 11 -47 36 -4 72 25 56 45 -13 15 -34 16
-67 2z"/>
<path d="M5055 1371 c-28 -6 -30 -9 -28 -51 6 -99 11 -110 47 -110 19 0 39 6
45 14 20 24 -4 159 -27 155 -4 -1 -20 -4 -37 -8z"/>
<path d="M4470 1341 c0 -30 0 -31 -44 -25 -54 8 -83 -7 -94 -49 -17 -64 15
-116 71 -118 18 0 59 -2 92 -4 71 -4 99 7 90 36 -4 11 -12 57 -18 102 l-12 82
-42 3 c-42 3 -43 2 -43 -27z m-6 -94 c23 -17 17 -52 -8 -52 -23 0 -41 27 -33
49 8 19 17 20 41 3z"/>
<path d="M4893 1362 c-9 -5 -9 -27 -2 -87 6 -44 14 -84 18 -88 5 -5 24 -4 42
1 l34 9 -3 73 c-1 40 -7 79 -13 87 -12 14 -57 17 -76 5z"/>
<path d="M4653 1300 c-12 -5 -29 -21 -39 -35 -14 -22 -15 -32 -5 -65 10 -34
16 -39 51 -45 40 -7 69 -3 148 17 43 11 56 33 25 41 -14 4 -12 5 5 6 43 2 13
60 -44 81 -31 12 -111 12 -141 0z m97 -40 c11 -7 6 -10 -20 -10 -26 0 -31 3
-20 10 8 5 17 10 20 10 3 0 12 -5 20 -10z m10 -60 c-20 -13 -50 -13 -50 0 0 6
15 10 33 10 24 0 28 -3 17 -10z"/>
</g>
</svg>
